HIERARCHY
ROOT Hips
{
	OFFSET	0.00	0.00	0.00
	CHANNELS 6 Xposition Yposition Zposition Zrotation Xrotation Yrotation
	JOINT LeftUpLeg
	{
		OFFSET	 0.126116	-0.014019	-0.065224
		CHANNELS 3 Zrotation Xrotation Yrotation
		JOINT LeftLeg
		{
			OFFSET	 0.000000	 0.000000	 0.569914
			CHANNELS 3 Zrotation Xrotation Yrotation
			JOINT LeftFoot
			{
				OFFSET	 0.000000	 0.000000	 0.544423
				CHANNELS 3 Zrotation Xrotation Yrotation
				JOINT LeftToeBase
				{
					OFFSET	 0.000000	 0.000000	 0.207117
					CHANNELS 3 Zrotation Xrotation Yrotation
					End Site
					{
						OFFSET	 0.000000	 0.000000	 0.207117
					}
				}
			}
		}
	}
	JOINT RightUpLeg
	{
		OFFSET	-0.124023	-0.008373	-0.065224
		CHANNELS 3 Zrotation Xrotation Yrotation
		JOINT RightLeg
		{
			OFFSET	 0.000000	 0.000000	 0.570047
			CHANNELS 3 Zrotation Xrotation Yrotation
			JOINT RightFoot
			{
				OFFSET	 0.000000	 0.000000	 0.544354
				CHANNELS 3 Zrotation Xrotation Yrotation
				JOINT RightToeBase
				{
					OFFSET	 0.000000	 0.000000	 0.207540
					CHANNELS 3 Zrotation Xrotation Yrotation
					End Site
					{
						OFFSET	 0.000000	 0.000000	 0.207540
					}
				}
			}
		}
	}
	JOINT Spine
	{
		OFFSET	 0.000184	-0.007763	 0.117403
		CHANNELS 3 Zrotation Xrotation Yrotation
		JOINT Spine1
		{
			OFFSET	 0.000000	 0.000000	 0.137269
			CHANNELS 3 Zrotation Xrotation Yrotation
			JOINT Spine2
			{
				OFFSET	 0.000000	 0.000000	 0.156879
				CHANNELS 3 Zrotation Xrotation Yrotation
				JOINT LeftShoulder
				{
					OFFSET	 0.080501	-0.002496	 0.160144
					CHANNELS 3 Zrotation Xrotation Yrotation
					JOINT LeftArm
					{
						OFFSET	 0.000000	 0.000000	 0.164363
						CHANNELS 3 Zrotation Xrotation Yrotation
						JOINT LeftForeArm
						{
							OFFSET	 0.000000	 0.000000	 0.364576
							CHANNELS 3 Zrotation Xrotation Yrotation
							JOINT LeftHand
							{
								OFFSET	 0.000000	 0.000000	 0.360812
								CHANNELS 3 Zrotation Xrotation Yrotation
								JOINT LeftHandIndex1
								{
									OFFSET	 0.000000	 0.000000	 0.086006
									CHANNELS 3 Zrotation Xrotation Yrotation
									JOINT LeftHandIndex2
									{
										OFFSET	 0.000000	 0.000000	 0.047236
										CHANNELS 3 Zrotation Xrotation Yrotation
										JOINT LeftHandIndex3
										{
											OFFSET	-0.004284	-0.000551	 0.038166
											CHANNELS 3 Zrotation Xrotation Yrotation
											End Site
											{
												OFFSET	-0.004284	-0.000551	 0.038166
											}
										}
									}
								}
							}
						}
					}
				}
				JOINT Neck
				{
					OFFSET	 0.000000	 0.000000	 0.176489
					CHANNELS 3 Zrotation Xrotation Yrotation
					JOINT Head
					{
						OFFSET	 0.000000	-0.001747	 0.077940
						CHANNELS 3 Zrotation Xrotation Yrotation
						End Site
						{
							OFFSET	 0.000000	-0.001747	 0.077940
						}
					}
				}
				JOINT RightShoulder
				{
					OFFSET	-0.080363	 0.000306	 0.159706
					CHANNELS 3 Zrotation Xrotation Yrotation
					JOINT RightArm
					{
						OFFSET	 0.000000	 0.000000	 0.164196
						CHANNELS 3 Zrotation Xrotation Yrotation
						JOINT RightForeArm
						{
							OFFSET	 0.000000	 0.000000	 0.365611
							CHANNELS 3 Zrotation Xrotation Yrotation
							JOINT RightHand
							{
								OFFSET	 0.000000	 0.000000	 0.360648
								CHANNELS 3 Zrotation Xrotation Yrotation
								JOINT RightHandIndex1
								{
									OFFSET	 0.000000	 0.000000	 0.069977
									CHANNELS 3 Zrotation Xrotation Yrotation
									JOINT RightHandIndex2
									{
										OFFSET	 0.000000	 0.000000	 0.052305
										CHANNELS 3 Zrotation Xrotation Yrotation
										JOINT RightHandIndex3
										{
											OFFSET	 0.009002	-0.000782	 0.042196
											CHANNELS 3 Zrotation Xrotation Yrotation
											End Site
											{
												OFFSET	 0.009002	-0.000782	 0.042196
											}
										}
									}
								}
							}
						}
					}
				}
			}
		}
	}
}
MOTION
Frames:    13
Frame Time: 0.03333334
-0.090934	 6.708564	 1.274155	-99.110570	 0.991953	 0.221201	-50.839330	-10.532990	-172.752700	 17.394740	-41.683960	 5.572732	-83.904290	 76.640670	 61.416190	-2.177588	 48.028380	-0.516424	 37.836230	-6.904569	 179.360600	-9.974484	-42.850010	-1.281569	 45.403810	 78.413950	-28.938850	 1.964055	 56.238160	 0.846584	-11.106100	 7.258503	 1.915768	-7.521550	 3.451493	-6.413440	-6.384912	-19.356160	 2.476762	-91.229350	 83.958270	 178.242700	 87.153030	 55.501670	-86.667460	 1.863198	-21.537220	-54.127150	 20.489040	-1.766482	-12.939560	-11.851870	 9.689025	-26.606140	-5.213937	-0.202400	 3.566957	-1.378229	 35.397820	-2.634230	-2.164317	 4.236311	 3.453480	-7.739339	-12.120290	-16.231690	 87.727020	 87.418960	-176.799000	-11.468910	 79.525090	-12.503860	-4.822375	-22.911330	 46.724130	-14.044780	-10.832130	 10.816240	-0.871661	 25.267620	-61.755250	 5.070519	-0.690904	-9.399550	-2.350882	 35.473990	 5.254307
-0.090719	 6.731273	 1.274995	-94.670190	 1.578724	 0.890360	-53.218230	-10.233250	-174.139000	 18.322270	-42.352790	 6.277976	-84.817440	 75.793880	 62.199470	-2.205575	 46.504460	-0.466131	 34.260400	-6.702007	 178.746800	-7.953449	-42.012010	 0.091590	 42.394640	 79.573280	-26.719390	 1.985766	 55.576550	 0.815682	-11.102790	 6.626143	 1.482181	-7.261685	 4.490364	-6.235967	-5.066043	-20.802240	 2.496784	-91.229210	 83.958310	 178.242500	 89.385600	 57.831960	-87.722760	 3.143499	-21.781120	-52.317260	 21.148000	 0.344993	-11.640250	-11.492510	 9.711294	-25.354790	-5.213937	-0.202400	 3.566957	-1.378229	 35.397820	-2.634230	-0.145337	 4.724610	 0.803058	-5.777006	-14.285860	-12.300140	 87.727180	 87.418890	-176.799100	-9.335834	 78.969220	-14.079350	-4.120467	-22.565280	 47.261410	-14.118490	-7.259960	 10.258350	-1.487030	 24.434850	-62.190510	 5.070519	-0.690904	-9.399550	-2.350882	 35.473990	 5.254307
-0.090574	 6.763381	 1.276446	-88.747860	 2.610065	 1.426068	-55.730980	-10.288050	-176.020400	 19.689150	-43.182900	 7.326746	-84.708690	 74.736870	 61.929890	-2.247468	 43.897520	-0.385537	 29.195220	-6.337856	 177.988800	-5.194755	-40.724320	 1.890098	 38.955040	 81.471150	-24.364780	 2.069422	 52.701420	 0.691694	-11.154990	 6.055215	 1.239933	-6.871885	 5.524842	-6.277116	-2.233169	-23.539520	 3.198299	-91.229260	 83.958270	 178.242600	 92.752370	 63.761650	-88.085860	 4.320934	-22.112800	-50.883670	 19.451640	 2.459355	-8.894063	-11.068180	 9.167436	-23.420180	-5.213937	-0.202400	 3.566957	-1.378229	 35.397820	-2.634230	 3.413313	 6.607161	-3.450681	-2.243350	-18.639750	-6.034717	 87.726810	 87.418960	-176.798800	-6.995349	 77.742230	-16.119600	-3.911501	-22.532580	 47.512740	-15.219120	-2.393645	 9.654316	-1.209714	 24.933750	-62.548870	 5.070519	-0.690904	-9.399550	-2.350882	 35.473990	 5.254307
-0.090667	 6.772265	 1.276902	-87.166310	 2.896236	 1.450866	-56.169650	-10.485160	-176.462100	 19.897420	-43.484810	 7.513350	-83.920730	 74.531710	 61.241610	-2.265809	 42.598560	-0.347632	 27.880620	-5.968572	 177.914200	-4.427852	-40.013180	 2.356740	 37.054730	 81.805660	-22.817510	 2.046665	 53.541190	 0.726294	-11.115880	 5.868258	 1.216890	-6.724873	 5.776673	-6.172172	-1.293060	-24.260010	 3.445454	-91.229340	 83.958370	 178.242600	 93.308690	 66.182030	-87.721220	 4.610474	-22.268660	-50.636220	 18.385460	 2.725792	-7.899551	-11.085880	 8.818779	-23.216680	-5.213937	-0.202400	 3.566957	-1.378229	 35.397820	-2.634230	 4.581053	 7.092397	-4.889116	-0.989043	-19.737620	-3.853007	 87.726860	 87.418960	-176.798800	-6.470778	 77.304730	-16.652210	-3.823858	-22.514880	 47.613520	-15.519590	-1.110743	 9.522391	-0.736872	 25.626510	-62.494720	 5.070519	-0.690904	-9.399550	-2.350882	 35.473990	 5.254307
-0.091796	 6.793007	 1.277848	-83.831250	 3.061318	 1.547340	-56.071040	-10.714090	-177.045600	 20.202460	-44.324300	 7.844460	-82.734150	 74.399440	 60.316750	-2.273898	 41.988060	-0.330275	 24.928190	-4.434360	 177.416000	-2.707901	-37.919990	 3.313878	 33.098060	 82.872250	-19.631860	 2.095510	 51.676700	 0.651063	-10.574850	 5.686620	 1.210848	-6.033601	 6.488021	-5.987561	 0.847959	-25.580110	 4.227909	-91.229320	 83.958270	 178.242600	 90.272270	 71.285000	-83.465270	 4.532533	-21.410880	-49.661330	 14.875720	 3.411230	-5.878088	-10.952140	 8.626026	-22.608880	-5.213937	-0.202400	 3.566957	-1.378229	 35.397820	-2.634230	 7.038773	 8.284411	-7.413655	 1.782324	-22.185700	 0.775078	 87.726930	 87.418820	-176.798900	-6.419462	 76.033190	-16.622590	-3.087398	-21.927270	 47.920060	-15.652150	 1.645469	 9.354484	-0.921120	 25.440580	-62.909720	 5.070519	-0.690904	-9.399550	-2.350882	 35.473990	 5.254307
-0.092187	 6.810460	 1.278666	-81.222620	 3.166868	 1.703429	-56.017570	-10.914080	-177.483600	 20.609880	-45.108510	 8.246567	-81.570690	 74.167210	 59.284330	-2.323455	 37.571210	-0.212338	 22.446760	-3.121850	 176.939200	-1.337425	-35.914620	 3.973233	 27.841830	 83.702320	-15.100350	 2.157547	 48.918520	 0.549441	-9.987246	 5.561347	 1.084992	-5.366496	 7.138727	-5.766325	 2.495451	-26.441480	 4.815869	-91.229350	 83.958340	 178.242700	 82.464630	 75.006450	-75.366110	 3.815099	-20.073420	-48.965540	 11.393120	 3.633761	-4.558571	-10.732780	 8.801617	-21.972650	-5.213937	-0.202400	 3.566957	-1.378229	 35.397820	-2.634230	 8.893743	 9.166963	-9.057509	 3.994147	-23.821950	 4.309619	 87.726810	 87.419040	-176.798800	-5.469627	 74.751550	-17.143840	-2.504852	-21.432310	 48.127010	-15.487810	 3.390030	 9.178947	-1.338828	 24.922160	-63.359520	 5.070519	-0.690904	-9.399550	-2.350882	 35.473990	 5.254307
-0.089869	 6.831625	 1.279555	-78.214630	 3.936411	 1.992889	-57.686680	-11.481800	-178.498500	 21.950310	-46.069940	 9.368039	-78.492600	 73.040130	 56.331770	-2.407220	 14.457740	 0.282246	 19.457190	-2.694724	 176.524100	 0.216043	-33.867630	 4.651453	 17.089940	 84.155910	-5.270988	 2.175304	 48.027580	 0.518741	-9.523079	 5.111382	 0.517442	-4.808226	 7.705125	-4.978531	 3.826868	-27.217350	 4.775771	-91.229170	 83.958370	 178.242500	 65.878510	 78.244440	-58.190360	 1.815436	-18.603060	-50.105670	 7.236607	 3.263616	-3.546960	-10.393610	 9.142036	-21.021520	-5.213937	-0.202400	 3.566957	-1.378229	 35.397820	-2.634230	 10.705690	 9.687709	-10.570930	 6.200732	-24.614290	 7.582225	 87.726960	 87.418890	-176.798900	-0.205770	 73.145320	-20.920930	-2.766247	-21.878490	 48.318780	-15.312490	 4.151492	 8.522202	-0.545087	 26.074640	-63.318070	 5.070519	-0.690904	-9.399550	-2.350882	 35.473990	 5.254307
-0.085835	 6.852917	 1.280421	-74.985120	 4.636533	 1.760337	-55.158990	-12.777300	 179.975600	 20.629530	-47.267770	 8.560570	-81.195420	 73.780800	 59.784270	-2.390304	 27.381590	 0.022994	 17.921670	-2.286830	 176.128000	 0.950716	-32.066020	 4.828678	 10.123840	 86.150960	 1.431459	 2.287124	 40.774960	 0.298519	-9.387066	 4.900482	 0.519579	-4.636053	 8.458176	-5.051204	 6.039352	-28.024230	 5.843869	-91.229280	 83.958270	 178.242600	 34.169630	 79.149280	-26.153400	 0.165566	-17.864120	-51.919430	 3.739655	 1.778239	-2.764471	-10.063150	 8.966638	-19.732000	-5.213937	-0.202400	 3.566957	-1.378229	 35.397820	-2.634230	 12.364780	 10.703260	-11.638330	 8.327211	-25.544530	 11.002310	 87.726830	 87.419040	-176.798800	 0.354141	 71.484080	-19.520840	-1.716961	-21.089990	 48.844430	-14.517310	 4.628655	 8.451900	-0.486809	 26.290340	-63.997790	 5.070519	-0.690904	-9.399550	-2.350882	 35.473990	 5.254307
-0.082847	 6.869427	 1.280660	-72.539570	 4.992299	 1.862565	-53.406500	-13.574350	 178.900100	 19.905680	-48.228930	 8.140926	-83.307280	 74.176870	 62.386490	-2.369739	 31.557050	-0.068619	 16.461770	-1.897817	 175.567900	 1.588491	-30.537580	 4.952856	-0.960661	 87.005130	 12.128860	 2.321656	 37.574010	 0.214169	-9.386934	 4.989141	 0.232619	-4.509197	 9.051526	-5.080769	 7.612541	-28.519150	 6.487060	-91.229180	 83.958270	 178.242500	 14.016190	 77.423360	-6.178557	-0.655322	-17.450290	-52.826500	 1.798692	 0.177356	-2.428621	-10.054890	 8.940285	-19.685330	-5.213937	-0.202400	 3.566957	-1.378229	 35.397820	-2.634230	 13.427890	 11.004320	-12.166920	 9.653101	-25.649350	 13.012510	 87.726990	 87.419040	-176.799000	 1.553934	 70.094820	-18.948560	-1.067748	-20.711980	 49.328500	-13.802690	 4.111877	 8.308833	-0.308818	 26.553380	-64.043960	 5.070519	-0.690904	-9.399550	-2.350882	 35.473990	 5.254307
-0.079316	 6.889559	 1.280174	-69.590830	 5.361923	 2.221542	-51.355280	-14.530470	 177.657000	 19.209100	-49.435110	 7.753397	-85.389530	 74.553500	 65.008930	-2.370924	 31.356800	-0.064093	 14.205070	-1.358878	 174.898800	 2.525565	-28.539340	 5.117089	-14.480280	 87.179780	 24.856400	 2.336021	 35.994940	 0.174727	-9.406640	 5.219297	-0.417095	-4.297831	 9.821972	-5.163773	 9.326067	-29.015790	 7.090600	-91.229310	 83.958270	 178.242600	-1.114317	 74.153550	 9.740558	-1.704970	-17.633280	-55.234130	 0.212064	-2.352211	-2.173607	-10.279800	 8.676056	-20.300790	-5.213937	-0.202400	 3.566957	-1.378229	 35.397820	-2.634230	 14.436630	 11.075590	-12.530640	 10.954320	-25.391580	 15.019380	 87.726780	 87.418890	-176.798700	 3.029988	 68.333950	-18.009780	-0.227902	-20.555940	 50.438480	-12.945230	 2.492644	 8.127616	-0.194149	 26.691630	-63.905730	 5.070519	-0.690904	-9.399550	-2.350882	 35.473990	 5.254307
-0.075059	 6.909350	 1.279213	-66.867910	 5.911572	 2.483420	-48.535110	-15.935280	 176.401400	 17.865410	-50.553700	 6.830770	-87.801930	 75.196200	 68.145450	-2.350850	 34.361940	-0.133626	 11.340080	-1.207216	 174.611300	 3.705556	-26.897930	 5.376409	-18.008300	 86.620090	 27.276810	 2.341011	 35.400430	 0.160214	-9.197396	 5.259308	-1.149028	-3.935001	 10.522440	-5.061832	 10.485040	-29.318770	 7.343053	-91.229300	 83.958370	 178.242600	-9.584498	 70.129940	 19.161600	-2.056811	-18.434430	-57.197610	-0.220013	-5.423551	-1.869852	-10.684480	 7.208422	-20.720390	-5.213937	-0.202400	 3.566957	-1.378229	 35.397820	-2.634230	 14.882680	 11.423440	-12.609800	 11.895520	-25.344390	 17.048880	 87.727130	 87.418890	-176.799100	 2.305854	 66.377650	-14.707930	 0.850308	-20.172890	 51.681600	-12.315020	 0.245349	 8.293660	-0.956843	 25.714310	-64.486100	 5.070519	-0.690904	-9.399550	-2.350882	 35.473990	 5.254307
-0.071595	 6.923947	 1.278334	-65.064330	 6.083107	 2.552856	-46.106140	-16.975900	 176.062200	 17.287240	-51.144140	 6.433563	-87.843820	 75.603550	 68.491800	-2.373916	 30.835440	-0.052379	 9.587506	-1.129018	 174.296200	 4.859724	-25.990140	 5.742139	-25.461720	 86.657190	 33.677450	 2.366076	 31.903710	 0.077997	-8.932401	 5.421099	-1.133433	-3.650596	 11.338930	-6.102919	 12.203670	-29.474140	 8.788474	-91.229220	 83.958340	 178.242500	-13.607810	 66.970690	 23.309230	-1.678462	-18.945750	-57.165070	-0.238058	-8.341850	-1.642791	-10.760700	 6.830724	-20.731810	-5.213937	-0.202400	 3.566957	-1.378229	 35.397820	-2.634230	 15.265060	 11.772510	-12.523610	 12.563730	-25.579530	 18.076060	 87.726710	 87.418820	-176.798700	 3.242411	 65.291150	-13.408370	 0.817429	-20.426060	 51.970990	-12.189290	-2.635142	 8.152419	-1.085076	 25.462840	-64.156950	 5.070519	-0.690904	-9.399550	-2.350882	 35.473990	 5.254307
-0.067135	 6.942376	 1.276996	-62.509980	 6.229751	 2.563796	-43.355320	-18.203550	 176.032800	 16.432770	-51.503250	 5.792043	-86.759830	 76.173350	 67.763230	-2.400322	 24.299070	 0.087505	 6.858788	-1.326498	 173.644700	 6.378867	-25.262080	 6.284314	-43.364880	 86.422420	 50.378190	 2.389507	 27.219510	-0.025098	-8.687768	 5.713969	-1.189684	-3.449662	 12.382130	-6.870178	 13.804770	-29.909750	 9.979135	-91.229260	 83.958270	 178.242600	-16.127580	 63.933250	 26.807300	-0.907712	-19.488240	-56.396170	 0.309842	-12.575350	-1.394916	-10.538010	 6.690555	-19.905690	-5.213937	-0.202400	 3.566957	-1.378229	 35.397820	-2.634230	 15.557170	 12.059080	-12.847760	 13.257220	-25.851390	 19.252320	 87.726820	 87.419040	-176.798800	 3.836214	 64.142850	-11.417680	 1.162701	-20.573480	 52.750230	-11.739820	-7.171647	 8.041903	-1.537935	 24.767020	-63.972800	 5.070519	-0.690904	-9.399550	-2.350882	 35.473990	 5.254307
